<svg width="1273" height="396" viewBox="0 0 1273 396" fill="none" xmlns="http://www.w3.org/2000/svg">
<path fill-rule="evenodd" clip-rule="evenodd" d="M265.76 61.5774C264.204 62.5206 262.469 62.9545 260.557 62.8784C258.795 62.6357 257.06 62.5271 255.353 62.5531C257.054 64.5449 258.138 66.8215 258.605 69.383C257.969 69.4103 257.318 69.4103 256.654 69.383C257.317 70.7516 257.967 72.0525 258.605 73.2858C258.605 73.9362 258.605 74.5867 258.605 75.2372C257.619 78.5766 257.185 82.4794 257.304 86.9455C257.189 88.7122 256.863 90.4469 256.329 92.1492C255.895 91.2821 255.462 91.2821 255.028 92.1492C253.924 95.8738 252.298 99.3427 250.149 102.557C246.047 103.097 241.927 103.422 237.79 103.532C236.948 105.995 236.948 108.489 237.79 111.013C240.44 111.82 242.391 113.446 243.645 115.891C247.65 116.643 251.444 118.053 255.028 120.119C259.111 120.606 261.388 118.872 261.858 114.915C264.136 114.674 266.088 115.325 267.712 116.867C268.609 118.31 268.392 119.611 267.061 120.77C267.706 121.527 268.356 122.286 269.013 123.046C268.844 123.866 268.41 124.517 267.712 124.998C268.397 125.9 268.505 126.876 268.037 127.925C266.822 129.392 265.846 131.018 265.11 132.803C262.561 133.805 260.284 135.214 258.28 137.031C255.198 143.626 252.487 150.346 250.149 157.196C248.568 159.544 247.484 162.146 246.897 165.001C245.227 166.601 245.227 168.227 246.897 169.88C245.096 172.273 245.746 174.01 248.848 175.083C248.415 175.298 247.981 175.519 247.547 175.734C253.033 183.142 255.635 191.488 255.353 200.777C254.604 204.341 254.496 208.029 255.028 211.834C256.098 229.709 258.917 247.272 263.484 264.522C265.79 267.911 268.717 270.623 272.265 272.653C270.748 272.867 269.229 273.089 267.712 273.303C273.859 279.528 281.231 282.67 289.828 282.735C292.346 283.606 294.948 284.146 297.633 284.361C298.5 286.039 299.692 287.451 301.211 288.589C301.542 291.731 301.76 294.983 301.861 298.346C300.487 299.562 298.861 300.213 296.983 300.297C295.2 299.595 293.358 298.944 291.454 298.346C290.657 298.58 289.898 298.905 289.177 299.322C285.383 299.432 281.588 299.536 277.794 299.647C260.783 298.827 243.762 298.392 226.733 298.346C226.507 292.713 227.157 287.184 228.684 281.759C228.467 281.434 228.25 281.109 228.034 280.783C227.007 281.525 225.923 281.85 224.781 281.759C226.845 279.047 228.254 276.12 229.009 272.978C228.248 274.357 227.272 274.786 226.082 274.279C227.578 269.823 228.336 265.27 228.359 260.619C225.391 252.079 221.705 243.837 217.301 235.902C211.154 249.678 205.191 263.553 199.413 277.531C202.932 279.613 202.498 280.699 198.112 280.783C195.895 286.299 193.51 291.718 190.957 297.045C190.233 296.251 190.124 295.38 190.632 294.443C192.692 289.454 194.751 284.472 196.811 279.483C196.093 278.578 195.225 277.817 194.209 277.206C195.493 276.881 196.794 276.777 198.112 276.881C198.812 273.915 199.896 271.098 201.365 268.425C205.267 258.453 209.17 248.475 213.073 238.503C214.629 236.324 215.28 233.833 215.024 231.023C214.59 226.255 214.157 221.481 213.723 216.713C213.712 213.929 214.146 211.216 215.024 208.582C214.52 206.436 213.327 204.705 211.447 203.378C207.819 209.395 203.916 215.249 199.738 220.941C198.126 222.118 196.5 223.204 194.86 224.193C191.457 225.247 188.205 226.652 185.103 228.421C183.487 230.899 181.969 233.397 180.55 235.902C179.899 235.687 179.465 235.251 179.249 234.601C179.592 233.722 179.701 232.857 179.574 231.999C172.498 237.99 165.234 243.74 157.784 249.236C154.603 252.092 151.785 255.233 149.328 258.668C150.524 259.988 150.849 261.504 150.303 263.221C148.844 265.985 146.893 268.366 144.449 270.376C143.87 275.196 144.087 279.97 145.1 284.686C147.292 286.657 149.243 288.83 150.954 291.191C151.275 292.251 151.383 293.337 151.279 294.443C150.691 294.905 150.474 295.555 150.628 296.395C149.859 297.045 148.992 297.591 148.027 298.021C145.398 298.131 142.796 298.457 140.221 298.996C138.953 300.46 137.434 300.681 135.668 299.647C133.253 302.119 130.76 302.119 128.187 299.647C128.381 302.054 127.297 303.14 124.935 302.899C122.597 302.867 120.755 301.891 119.406 299.972C116.487 298.795 113.452 298.144 110.3 298.021C105.492 296.024 101.697 292.882 98.9167 288.589C96.1873 280.471 93.9107 272.23 92.0868 263.871C92.1232 259.93 93.6414 256.677 96.64 254.114C95.9896 253.679 95.3391 253.249 94.6886 252.814C97.5774 252.326 100.396 251.565 103.145 250.537C102.009 250.231 100.925 249.795 99.8923 249.236C103.03 248.696 106.065 247.831 108.999 246.634C107.185 246.478 105.45 246.042 103.795 245.333C107.811 244.572 111.497 243.057 114.853 240.78C113.769 240.565 112.685 240.344 111.601 240.13C113.769 238.614 115.937 237.092 118.105 235.576C117.17 235.433 116.303 235.108 115.503 234.601C119.14 232.077 122.283 229.039 124.935 225.494C128.887 216.68 134.416 209.089 141.522 202.728C148.231 197.752 154.302 192.112 159.735 185.816C163.413 182.57 165.148 178.453 164.939 173.457C164.254 173.555 163.604 173.444 162.987 173.132C165.781 170.497 166.648 167.356 165.589 163.7C168.298 157.202 170.683 150.587 172.744 143.861C170.814 142.415 168.645 141.331 166.24 140.609C160.64 134.937 157.605 128.107 157.133 120.119C157.241 115.561 157.133 111.007 156.808 106.459C156.132 106.943 155.807 107.594 155.832 108.411C154.968 112.262 154.317 116.164 153.881 120.119C153.243 118.437 153.027 116.702 153.23 114.915C153.23 114.265 153.23 113.614 153.23 112.964C155.141 106.616 156.66 100.112 157.784 93.4501C158.759 90.9615 159.192 88.3596 159.084 85.6446C160.391 82.1607 161.15 78.4745 161.361 74.5867C162.758 71.0417 164.275 67.5721 165.914 64.1793C166.238 62.2396 166.347 60.2882 166.24 58.3251C165.91 54.0028 166.778 49.9914 168.841 46.2916C175.71 42.1949 183.082 39.8097 190.957 39.1365C193.589 41.1776 196.191 41.1776 198.763 39.1365C198.032 38.9745 197.381 38.6493 196.811 38.1608C199.71 37.9214 202.312 36.9457 204.617 35.2337C203.176 35.1231 201.875 34.6893 200.714 33.9328C206.324 33.5093 211.311 31.5579 215.675 28.0786C214.374 27.5368 213.073 26.9943 211.772 26.4524C214.255 25.8417 216.641 24.9746 218.927 23.8506C218.586 23.4005 218.152 23.0752 217.626 22.8749C219.302 22.3662 220.603 21.3905 221.529 19.9478C219.091 18.9656 219.308 18.2065 222.179 17.6712C224.704 14.4599 227.74 11.858 231.286 9.86563C231.286 9.21517 231.286 8.56471 231.286 7.91425C234.715 6.00123 237.967 3.83324 241.043 1.40962C246.937 0.0898268 252.141 1.39075 256.654 5.31239C261.156 9.8123 265.168 14.6908 268.688 19.9478C268.904 23.4167 269.121 26.8863 269.338 30.3552C270.867 32.1147 272.059 34.0661 272.915 36.2094C271.453 38.4346 271.235 40.8199 272.265 43.3645C271.702 48.2176 270.727 52.9874 269.338 57.6747C268.453 59.3158 267.261 60.6167 265.76 61.5774Z" fill="#040809"/>
<path fill-rule="evenodd" clip-rule="evenodd" d="M166.24 58.3252C166.347 60.2883 166.238 62.2397 165.914 64.1794C164.275 67.5722 162.758 71.0417 161.361 74.5868C161.15 78.4746 160.391 82.1608 159.084 85.6446C158.39 82.032 157.739 78.3464 157.133 74.5868C156.299 76.4549 156.299 78.2977 157.133 80.1157C156.266 80.5496 155.398 80.5496 154.531 80.1157C155.357 78.7244 155.357 77.3155 154.531 75.8877C154.268 76.9408 153.943 78.2417 153.556 79.7905C152.655 79.1068 152.004 78.2398 151.604 77.1886C150.91 78.1272 150.151 78.9943 149.328 79.7905C149.638 80.4266 150.071 80.9685 150.628 81.4166C148.302 81.5402 146.243 82.2993 144.449 83.6933C144.015 83.2594 143.582 82.8262 143.148 82.3923C142.989 83.7993 142.338 84.8836 141.197 85.6446C139.372 85.0891 137.962 85.7396 136.969 87.596C133.87 87.6331 132.244 89.1506 132.09 92.1493C131.623 91.5307 131.081 91.4227 130.464 91.824C128.921 93.0235 127.403 94.2164 125.911 95.4016C123.528 94.595 121.901 95.4627 121.032 98.0034C120.816 97.5696 120.599 97.1364 120.382 96.7025C119.481 97.3861 118.831 98.2532 118.431 99.3044C118.214 98.8705 117.997 98.4373 117.78 98.0034C117.563 99.0878 117.346 100.171 117.13 101.256C116.857 100.493 116.424 99.8429 115.829 99.3044C114.903 100.504 114.144 101.805 113.552 103.207C113.102 102.866 112.777 102.432 112.576 101.906C112.36 102.773 112.143 103.641 111.926 104.508C111.726 103.982 111.4 103.549 110.95 103.207C109.623 103.686 108.322 104.228 107.047 104.833C106.655 106.02 106.221 107.213 105.747 108.411C104.24 106.507 103.264 106.724 102.819 109.061C102.14 108.331 101.707 107.464 101.519 106.459C101.302 107.544 101.085 108.627 100.868 109.712C100.651 109.495 100.434 109.278 100.218 109.061C100.001 109.712 99.7837 110.362 99.5671 111.013C98.7001 111.013 97.8323 111.013 96.9653 111.013C97.0615 111.875 96.9536 112.634 96.64 113.289C95.8309 113.586 95.289 113.261 95.0139 112.314C94.3205 114.306 92.9109 115.282 90.7859 115.241C92.3411 115.69 92.3411 116.341 90.7859 117.192C89.8128 117.522 89.0537 117.197 88.5093 116.216C86.9917 116.867 85.9074 117.951 85.2569 119.469C85.0403 119.252 84.8231 119.035 84.6065 118.818C83.8923 119.772 82.9166 120.315 81.6794 120.444C79.4503 121.78 77.7161 123.623 76.4757 125.973C75.9826 125.121 75.3322 124.795 74.5243 124.998C75.1475 125.744 74.9308 126.394 73.8738 126.949C75.8064 129.494 75.5898 130.035 73.2234 128.575C72.0389 129.374 71.3884 130.458 71.272 131.828C70.5077 131.685 69.8572 131.902 69.3206 132.478C70.3223 133.149 70.6475 134.016 70.2963 135.08C68.7475 134.472 67.1214 134.255 65.4178 134.429C65.4048 135.498 65.8387 136.365 66.7188 137.031C66.1392 137.74 65.4887 137.74 64.7674 137.031C64.0876 138.268 63.2206 139.351 62.1655 140.284C61.5463 141.288 61.3297 142.373 61.515 143.536C60.8646 143.536 60.2141 143.536 59.5637 143.536C83.275 100.073 118.833 71.6701 166.24 58.3252Z" fill="#F0C226"/>
<path fill-rule="evenodd" clip-rule="evenodd" d="M265.76 61.5776C282.828 66.7091 298.439 74.7313 312.594 85.6448C311.364 85.5127 310.389 85.9459 309.667 86.9457C308.809 85.8074 308.483 84.5065 308.691 83.0429C307.585 83.1249 306.61 83.5587 305.764 84.3438C304.918 83.5587 303.943 83.1249 302.837 83.0429C302.509 85.5374 301.859 85.5374 300.885 83.0429C298.857 83.8196 298.64 84.7953 300.235 85.97C299.445 87.3334 298.902 87.2247 298.609 85.6448C296.773 87.1356 294.714 88.2193 292.429 88.8971C292.429 89.7641 292.429 90.6319 292.429 91.4989C290.896 91.0579 289.486 90.8407 288.201 90.8485C287.015 91.6609 287.124 92.4193 288.527 93.1251C287.388 93.9831 286.087 94.3083 284.624 94.1008C284.702 95.8603 284.051 96.2941 282.672 95.4017C281.372 96.7026 280.071 98.0036 278.77 99.3045C278.281 98.7347 277.956 98.0842 277.794 97.3531C275.769 98.3665 275.66 99.5588 277.469 100.931C275.917 100.702 274.399 100.81 272.916 101.256C272.054 102.189 270.971 102.84 269.663 103.207C268.83 106.831 268.071 107.048 267.387 103.858C267.061 104.508 266.736 105.159 266.411 105.809C264.01 106.585 261.842 107.777 259.906 109.387C262.033 109.045 264.201 109.261 266.411 110.037C262.425 110.092 262.209 110.852 265.76 112.314C265.327 112.748 264.893 113.181 264.459 113.615C266.332 113.992 267.417 115.076 267.712 116.867C266.088 115.325 264.136 114.674 261.858 114.916C261.388 118.872 259.111 120.606 255.028 120.119C251.444 118.053 247.65 116.643 243.645 115.891C242.391 113.446 240.44 111.82 237.791 111.013C236.948 108.489 236.948 105.995 237.791 103.532C241.927 103.423 246.047 103.097 250.149 102.557C252.298 99.3429 253.924 95.8739 255.028 92.1494C255.462 91.2823 255.895 91.2823 256.329 92.1494C256.863 90.4471 257.189 88.7124 257.304 86.9457C257.304 85 257 83 257.5 81C257.5 79 258 77.5 258.605 75.2374C258.605 74.5869 258.605 73.9364 258.605 73.286C256.5 70 255.5 68.5 258.605 69.3832C258.138 66.8217 257.054 64.545 255.353 62.5533C257.06 62.5273 258.795 62.6359 260.557 62.8786C262.469 62.9547 264.204 62.5208 265.76 61.5776Z" fill="#F0B823"/>
<path fill-rule="evenodd" clip-rule="evenodd" d="M159.084 85.6448C159.192 88.3598 158.759 90.9617 157.784 93.4503C156.894 94.7929 156.243 96.3111 155.832 98.0036C155.344 97.4338 155.018 96.7833 154.856 96.0522C154.64 96.2688 154.423 96.4861 154.206 96.7027C154.197 98.3418 154.522 99.968 155.182 101.581C155.173 102.482 154.955 103.24 154.531 103.858C154.017 103.136 153.692 102.269 153.556 101.256C153.413 102.191 153.088 103.058 152.58 103.858C150.245 104.752 148.185 106.053 146.4 107.761C145.933 107.142 145.392 107.034 144.774 107.435C143.365 108.411 142.172 109.603 141.197 111.013C140.73 110.394 140.188 110.286 139.571 110.688C136.834 113.207 133.907 115.483 130.789 117.517C130.287 117.423 129.853 117.207 129.488 116.867C127.509 119.196 125.232 121.147 122.659 122.721C121.346 121.867 120.587 122.3 120.382 124.022C119.203 123.301 118.661 123.735 118.756 125.323C117.826 125.374 116.958 125.158 116.154 124.673C115.5 124.957 115.5 125.391 116.154 125.973C114.532 127.271 113.014 128.68 111.601 130.201C109.903 130.297 108.385 130.84 107.047 131.828C105.463 130.923 105.03 131.248 105.747 132.803C104.525 132.967 103.224 133.401 101.844 134.104C101.377 135.397 100.726 136.59 99.8924 137.682C98.6031 136.726 97.5195 136.943 96.6401 138.332C96.1899 137.991 95.8647 137.557 95.6644 137.031C94.2151 137.937 93.4567 139.238 93.3877 140.934C91.1436 140.45 90.06 141.318 90.1354 143.536C89.2053 143.587 88.3375 143.371 87.5336 142.886C86.3816 143.234 86.165 143.776 86.8831 144.512C86.2658 144.913 85.724 144.805 85.257 144.186C84.6618 145.8 83.6861 146.233 82.3299 145.487C81.0485 147.146 79.6389 148.662 78.1019 150.041C76.1433 150.561 74.3006 151.751 72.5729 153.618C71.2083 153.625 70.016 153.521 68.9954 153.293C68.1699 154.204 67.8447 155.29 68.0197 156.545C64.7602 157.365 62.0497 159.102 59.8889 161.749C59.455 159.147 59.0218 159.147 58.588 161.749C57.9928 161.209 57.5596 160.559 57.287 159.798C55.8788 162.204 54.9031 164.806 54.36 167.603C53.9144 165.548 53.2639 163.596 52.4086 161.749C53.1722 159.017 54.2565 156.415 55.6609 153.943C56.1689 154.743 56.4941 155.609 56.6366 156.545C58.6621 154.288 58.9874 151.901 57.6123 149.39C58.3876 147.933 59.0381 146.415 59.5637 144.837C59.5637 144.403 59.5637 143.97 59.5637 143.536C60.2141 143.536 60.8646 143.536 61.5151 143.536C61.3297 142.373 61.5463 141.289 62.1655 140.284C63.2206 139.352 64.0876 138.268 64.7674 137.031C65.4887 137.74 66.1392 137.74 66.7188 137.031C65.8387 136.365 65.4048 135.498 65.4178 134.43C67.1214 134.255 68.7475 134.472 70.2963 135.08C70.6476 134.016 70.3223 133.149 69.3206 132.478C69.8572 131.902 70.5077 131.685 71.272 131.828C71.3884 130.458 72.0389 129.374 73.2234 128.575C75.5898 130.036 75.8064 129.494 73.8738 126.949C74.9309 126.394 75.1475 125.744 74.5243 124.998C75.3322 124.796 75.9826 125.121 76.4757 125.973C77.7161 123.623 79.4503 121.781 81.6794 120.445C82.9166 120.315 83.8923 119.773 84.6065 118.818C84.8231 119.035 85.0403 119.252 85.257 119.469C85.9074 117.951 86.9917 116.867 88.5093 116.217C89.0537 117.197 89.8128 117.522 90.7859 117.192C92.3411 116.341 92.3411 115.69 90.7859 115.241C92.9109 115.282 94.3205 114.306 95.0139 112.314C95.289 113.261 95.8309 113.586 96.6401 113.289C96.9536 112.634 97.0616 111.875 96.9653 111.013C97.8324 111.013 98.7001 111.013 99.5671 111.013C99.7837 110.362 100.001 109.712 100.218 109.061C100.434 109.278 100.651 109.495 100.868 109.712C101.085 108.628 101.302 107.544 101.519 106.46C101.707 107.464 102.14 108.331 102.819 109.061C103.264 106.724 104.24 106.507 105.747 108.411C106.221 107.213 106.655 106.021 107.047 104.833C108.322 104.228 109.623 103.686 110.95 103.207C111.4 103.549 111.726 103.983 111.926 104.508C112.143 103.641 112.36 102.773 112.576 101.906C112.777 102.432 113.102 102.866 113.552 103.207C114.144 101.806 114.903 100.505 115.829 99.3045C116.424 99.8431 116.857 100.494 117.13 101.256C117.346 100.172 117.563 99.0879 117.78 98.0036C117.997 98.4374 118.214 98.8706 118.431 99.3045C118.831 98.2534 119.481 97.3863 120.382 96.7027C120.599 97.1365 120.816 97.5697 121.032 98.0036C121.901 95.4629 123.528 94.5952 125.911 95.4017C127.403 94.2166 128.921 93.0236 130.464 91.8242C131.081 91.4228 131.623 91.5308 132.09 92.1494C132.244 89.1508 133.87 87.6333 136.969 87.5962C137.962 85.7398 139.372 85.0893 141.197 85.6448C142.338 84.8837 142.989 83.7994 143.148 82.3925C143.582 82.8263 144.015 83.2595 144.449 83.6934C146.243 82.2995 148.302 81.5404 150.628 81.4168C150.071 80.9686 149.638 80.4268 149.328 79.7906C150.151 78.9945 150.91 78.1274 151.604 77.1888C152.004 78.2399 152.655 79.107 153.556 79.7906C153.943 78.2419 154.268 76.9409 154.531 75.8878C155.357 77.3156 155.357 78.7245 154.531 80.1158C155.398 80.5497 156.266 80.5497 157.133 80.1158C156.299 78.2978 156.299 76.455 157.133 74.5869C157.739 78.3466 158.39 82.0321 159.084 85.6448Z" fill="#F1BF1E"/>
<path fill-rule="evenodd" clip-rule="evenodd" d="M157.784 93.4502C156.66 100.112 155.141 106.616 153.23 112.964C153.58 109.916 154.014 106.88 154.531 103.858C154.955 103.24 155.173 102.482 155.182 101.581C154.522 99.9678 154.197 98.3417 154.206 96.7025C154.423 96.4859 154.64 96.2687 154.857 96.052C155.018 96.7832 155.344 97.4336 155.832 98.0034C156.243 96.3109 156.894 94.7928 157.784 93.4502Z" fill="#F1BF1E"/>
<path fill-rule="evenodd" clip-rule="evenodd" d="M312.594 85.6448C318.591 89.6842 324.229 94.2374 329.506 99.3045C332.758 102.991 336.227 106.46 339.913 109.712C342.791 113.017 345.393 116.486 347.719 120.119C346.418 120.119 345.117 120.119 343.816 120.119C343.948 118.89 343.515 117.914 342.515 117.192C342.732 116.976 342.949 116.758 343.165 116.542C341.653 115.498 340.136 114.413 338.612 113.289C339.356 110.885 338.814 110.559 336.986 112.314C335.967 112.679 335.1 112.245 334.384 111.013C331.892 111.877 329.941 113.395 328.53 115.566C328.165 115.227 327.731 115.01 327.229 114.916C326.253 115.566 325.278 116.217 324.302 116.867C324.438 117.248 324.655 117.573 324.953 117.843C324.085 117.843 323.218 117.843 322.351 117.843C322.054 119.838 321.078 121.681 319.424 123.372C319.55 122.314 319.55 121.23 319.424 120.119C317.209 121.404 315.801 123.03 315.196 124.998C314.189 125.214 313.322 124.889 312.594 124.022C311.651 125.391 311.109 126.692 310.968 127.925C310.519 127.367 309.978 126.934 309.341 126.624C307.744 128.402 305.792 129.703 303.487 130.527C302.575 131.4 302.792 131.942 304.138 132.153C303.113 132.439 302.245 132.981 301.536 133.779C299.54 132.005 298.131 132.438 297.308 135.08C297.039 134.783 296.713 134.565 296.332 134.43C293.82 136.837 291.218 138.68 288.527 139.958C288.743 140.175 288.96 140.392 289.177 140.609C288.136 140.786 287.16 141.112 286.25 141.585C285.655 140.834 285.114 140.943 284.624 141.91C285.17 142.994 284.845 143.102 283.648 142.235C282.681 142.725 282.572 143.267 283.323 143.861C282.499 144.062 281.74 144.387 281.046 144.837C280.83 144.62 280.612 144.403 280.396 144.186C279.311 145.704 278.011 147.003 276.493 148.089C276.026 147.471 275.484 147.361 274.867 147.764C273.734 149.468 272.975 151.094 272.59 152.642C272.212 150.581 271.561 150.366 270.639 151.992C269.757 151.42 268.781 151.205 267.712 151.342C267.606 152.851 266.848 153.937 265.435 154.594C265.235 154.067 264.91 153.638 264.459 153.293C263.977 154.34 263.868 155.42 264.134 156.545C263.865 156.246 263.54 156.031 263.159 155.895C261.706 156.701 260.297 157.573 258.931 158.497C258.661 158.197 258.336 157.983 257.955 157.846C258.156 158.952 257.831 160.038 256.979 161.098C256.512 160.481 255.97 160.37 255.353 160.773C255.359 161.977 254.817 163.167 253.727 164.351C253.076 163.486 252.426 163.486 251.775 164.351C251.603 163.271 251.928 162.295 252.751 161.424C251.469 162.029 250.277 163.004 249.174 164.351C249.146 161.931 249.471 159.55 250.149 157.196C252.487 150.346 255.198 143.626 258.28 137.031C260.284 135.215 262.561 133.805 265.11 132.803C265.846 131.018 266.822 129.392 268.037 127.925C268.505 126.876 268.397 125.901 267.712 124.998C268.41 124.517 268.844 123.867 269.013 123.046C268.356 122.287 267.706 121.528 267.061 120.77C268.392 119.611 268.609 118.31 267.712 116.867C267.416 115.076 266.332 113.992 264.459 113.615C264.893 113.181 265.327 112.748 265.76 112.314C262.209 110.852 262.425 110.092 266.411 110.037C264.201 109.261 262.033 109.045 259.906 109.387C261.842 107.777 264.01 106.585 266.411 105.809C266.736 105.159 267.061 104.508 267.387 103.858C268.071 107.048 268.83 106.831 269.663 103.207C270.971 102.84 272.054 102.189 272.915 101.256C274.399 100.81 275.917 100.702 277.469 100.931C275.66 99.5589 275.769 98.3666 277.794 97.3531C277.956 98.0843 278.281 98.7347 278.77 99.3045C280.071 98.0036 281.372 96.7027 282.672 95.4017C284.051 96.2942 284.702 95.8603 284.624 94.1008C286.087 94.3083 287.388 93.9831 288.527 93.1251C287.124 92.4194 287.015 91.6609 288.201 90.8485C289.486 90.8407 290.896 91.058 292.429 91.499C292.429 90.6319 292.429 89.7642 292.429 88.8971C294.714 88.2193 296.164 85.8347 298 84.3439C298.293 85.9238 297.21 84.8634 298 83.5C296.405 82.3253 298.857 83.8196 300.885 83.0429C301.858 85.5375 302.509 85.5375 302.837 83.0429C303.943 83.1249 304.918 83.5588 305.764 84.3439C306.609 83.5588 307.585 83.1249 308.691 83.0429C308.483 84.5065 308.809 85.8074 309.667 86.9457C310.389 85.946 311.364 85.5128 312.594 85.6448Z" fill="#F3B523"/>
<path fill-rule="evenodd" clip-rule="evenodd" d="M813.45 173.457C827.364 160.103 843.189 157.391 860.934 165.327C872.194 169.431 879.023 177.341 881.424 189.068C881.749 211.835 881.859 234.601 881.749 257.367C871.127 257.367 860.498 257.367 849.876 257.367C850.091 239.473 849.876 221.696 849.226 204.029C847.502 190.252 839.911 184.723 826.459 187.442C819.103 190.35 814.764 195.664 813.45 203.379C812.8 221.26 812.585 239.258 812.8 257.367C802.178 257.367 791.549 257.367 780.927 257.367C780.927 205.115 780.927 152.857 780.927 100.605C791.549 100.605 802.178 100.605 812.8 100.605C812.585 125 812.8 149.286 813.45 173.457Z" fill="#219DBB"/>
<path fill-rule="evenodd" clip-rule="evenodd" d="M971.513 100.605C971.402 132.479 971.513 164.351 971.838 196.224C982.571 185.491 993.303 174.758 1004.04 164.026C1018.13 163.59 1032.22 163.59 1046.32 164.026C1031.45 178.778 1016.71 193.628 1002.08 208.582C1018.23 225.052 1034.49 241.424 1050.87 257.692C1036.77 258.128 1022.68 258.128 1008.59 257.692C996.282 245.281 983.924 233.027 971.513 220.941C970.862 232.968 970.648 245.112 970.862 257.367C960.455 257.367 950.047 257.367 939.64 257.367C939.64 205.115 939.64 152.857 939.64 100.605C950.262 100.605 960.891 100.605 971.513 100.605Z" fill="#229EBC"/>
<path fill-rule="evenodd" clip-rule="evenodd" d="M746.453 105.809C758.317 104.634 766.227 109.621 770.194 120.77C770.734 136.706 763.039 144.403 747.103 143.861C732.916 138.162 728.903 128.297 735.069 114.265C738.081 110.262 741.873 107.444 746.453 105.809Z" fill="#030303"/>
<path fill-rule="evenodd" clip-rule="evenodd" d="M904.515 105.809C916.256 104.357 924.172 109.127 928.257 120.119C930.078 132.195 925.2 140.11 913.622 143.861C902.004 145.153 894.303 140.274 890.53 129.225C889.359 117.897 894.023 110.091 904.515 105.809Z" fill="#249EBB"/>
<path fill-rule="evenodd" clip-rule="evenodd" d="M813.45 173.457C812.8 149.286 812.585 125.001 812.8 100.606C802.178 100.606 791.549 100.606 780.927 100.606C780.927 152.857 780.927 205.115 780.927 257.367C780.927 257.582 780.927 257.803 780.927 258.018C780.277 205.441 780.062 152.753 780.277 99.9551C791.335 99.9551 802.392 99.9551 813.45 99.9551C813.45 124.456 813.45 148.954 813.45 173.457Z" fill="#8DCBDA"/>
<path fill-rule="evenodd" clip-rule="evenodd" d="M347.719 120.119C350.055 123.221 352.548 126.256 355.199 129.226C360.697 138.268 365.683 147.595 370.16 157.196C370.895 159.114 371.437 161.066 371.786 163.05C371.216 163.134 370.782 162.92 370.485 162.399C370.15 161.274 369.716 160.194 369.184 159.147C368.475 159.947 367.607 160.487 366.582 160.773C367.201 161.241 367.309 161.781 366.907 162.399C366.005 161.716 365.029 161.606 363.98 162.074C364.197 162.289 364.414 162.51 364.631 162.724C363.441 162.9 362.465 163.447 361.704 164.351C361.487 163.915 361.27 163.486 361.053 163.05C360.511 164.461 359.536 165.437 358.126 165.977C358.343 166.191 358.56 166.413 358.777 166.627C354.467 167.987 352.082 170.699 351.622 174.758C350.54 173.86 349.672 174.082 349.02 175.409C348.401 174.869 347.751 174.765 347.068 175.083C345.624 177.178 343.781 178.804 341.539 179.962C340.889 179.097 340.238 178.225 339.588 177.36C339.158 178.934 338.182 180.014 336.661 180.612C336.971 181.25 337.404 181.79 337.962 182.238C336.725 182.368 335.749 182.908 335.035 183.865C334.125 183.507 333.258 183.292 332.433 183.214C332.136 184.021 332.461 184.567 333.409 184.84C332.478 185.146 331.719 185.686 331.132 186.466C329.94 184.626 328.964 184.73 328.205 186.792C328.639 187.006 329.072 187.227 329.506 187.442C328.639 187.878 328.639 188.307 329.506 188.743C328.889 189.146 328.347 189.036 327.88 188.418C326.06 190.955 324.868 190.955 324.302 188.418C323.652 188.743 323.001 189.068 322.351 189.393C324.605 189.998 324.821 190.974 323.001 192.321C323.486 193.127 323.703 193.992 323.652 194.922C322.71 194.194 322.06 193.218 321.7 191.995C317.546 191.267 313.426 190.616 309.341 190.044C304.001 198.012 298.581 205.928 293.08 213.786C283.63 203.587 275.066 192.743 267.387 181.263C262.442 178.271 257.346 175.558 252.101 173.132C249.663 170.816 247.928 168.104 246.897 165.001C247.484 162.146 248.568 159.544 250.149 157.196C249.471 159.55 249.146 161.931 249.174 164.351C250.277 163.004 251.469 162.029 252.751 161.424C251.928 162.295 251.603 163.271 251.775 164.351C252.426 163.486 253.076 163.486 253.727 164.351C254.817 163.167 255.359 161.976 255.353 160.773C255.97 160.37 256.512 160.48 256.979 161.098C257.831 160.038 258.157 158.952 257.955 157.846C258.336 157.983 258.661 158.197 258.931 158.496C260.297 157.573 261.706 156.701 263.159 155.895C263.54 156.031 263.865 156.246 264.134 156.545C263.868 155.42 263.977 154.34 264.46 153.293C264.91 153.638 265.235 154.067 265.435 154.594C266.848 153.937 267.606 152.85 267.712 151.341C268.781 151.205 269.757 151.419 270.639 151.992C271.561 150.366 272.212 150.58 272.59 152.642C272.975 151.094 273.734 149.468 274.867 147.764C275.484 147.361 276.026 147.471 276.493 148.089C278.011 147.003 279.312 145.704 280.396 144.186C280.612 144.403 280.83 144.62 281.046 144.837C281.74 144.387 282.499 144.062 283.323 143.861C282.572 143.267 282.681 142.725 283.648 142.235C284.845 143.102 285.17 142.993 284.624 141.91C285.114 140.942 285.655 140.834 286.25 141.584C287.16 141.112 288.136 140.786 289.177 140.609C288.96 140.392 288.743 140.175 288.527 139.958C291.218 138.679 293.82 136.837 296.332 134.429C296.713 134.565 297.039 134.783 297.308 135.08C298.131 132.438 299.004 131.226 301 133C301.709 132.202 303.113 132.439 304.138 132.153C302.792 131.942 302.575 131.4 303.487 130.527C305.793 129.703 307.744 128.402 309.341 126.624C309.978 126.934 310.519 127.367 310.968 127.925C311.109 126.692 311.651 125.391 312.594 124.022C313.322 124.889 314.189 125.214 315.196 124.998C315.801 123.03 317.209 121.404 319.424 120.119C319.55 121.23 319.55 122.314 319.424 123.371C321.078 121.681 322.054 119.838 322.351 117.843C323.218 117.843 324.085 117.843 324.953 117.843C324.655 117.573 324.438 117.248 324.302 116.867C325.278 116.216 326.253 115.566 327.229 114.915C327.731 115.01 328.165 115.226 328.53 115.566C329.941 113.395 331.892 111.877 334.384 111.013C335.1 112.245 335.967 112.679 336.986 112.314C338.814 110.559 339.356 110.885 338.612 113.289C340.136 114.413 341.653 115.498 343.166 116.542C342.949 116.758 342.732 116.975 342.515 117.192C343.515 117.914 343.948 118.89 343.816 120.119C345.117 120.119 346.418 120.119 347.719 120.119Z" fill="#F5B123"/>
<path fill-rule="evenodd" clip-rule="evenodd" d="M157.133 120.119C156.699 116.216 156.266 112.314 155.832 108.411C155.807 107.594 156.132 106.943 156.808 106.459C157.133 111.008 157.241 115.561 157.133 120.119Z" fill="#F1BF1E"/>
<path fill-rule="evenodd" clip-rule="evenodd" d="M154.531 103.858C154.013 106.88 153.58 109.916 153.23 112.964C153.23 113.615 153.23 114.265 153.23 114.916C152.58 114.916 151.929 114.916 151.279 114.916C151.435 116.918 151.218 118.87 150.628 120.77C151.357 122.133 152.333 122.35 153.556 121.42C153.616 124.244 153.616 127.062 153.556 129.876C153.922 126.077 154.681 125.86 155.832 129.226C156.266 128.792 156.699 128.359 157.133 127.925C157.939 128.905 157.722 129.664 156.483 130.201C157.722 130.739 157.939 131.498 157.133 132.478C155.43 133.209 154.021 134.293 152.905 135.73C152.636 135.433 152.311 135.216 151.929 135.08C151.292 136.043 150.533 136.911 149.653 137.682C149.198 138.706 149.415 139.573 150.303 140.284C150.444 139.058 150.878 137.974 151.604 137.031C152.038 137.465 152.471 137.898 152.905 138.332C152.893 140.117 152.459 141.852 151.604 143.536C150.954 143.102 150.303 142.669 149.653 142.235C148.599 143.367 147.623 144.56 146.726 145.813C145.864 145.716 145.105 145.824 144.449 146.138C144.307 147.074 143.981 147.94 143.473 148.74C143.023 148.395 142.698 147.966 142.498 147.439C139.26 149.598 136.224 151.979 133.391 154.594C128.068 157.105 122.756 160.142 117.455 163.7C115.652 162.874 114.568 163.525 114.203 165.652C112.357 166.192 110.948 167.278 109.975 168.904C109.317 168.358 108.558 168.143 107.698 168.254C107.809 169.112 107.592 169.873 107.047 170.53C106.006 170.706 105.03 171.031 104.12 171.506C103.851 171.207 103.526 170.992 103.145 170.855C101.608 172.176 100.307 173.691 99.2419 175.409C98.8081 174.973 98.3749 174.544 97.941 174.108C97.4219 175.135 97.0967 176.215 96.9653 177.36C95.9018 176.482 94.9261 176.592 94.0382 177.685C94.2548 177.9 94.4721 178.121 94.6887 178.336C93.4313 178.498 92.239 178.824 91.1111 179.311C90.8945 179.097 90.6773 178.876 90.4607 178.661C89.6086 179.825 89.2833 181.022 89.485 182.239C89.0511 182.674 88.6179 182.674 88.1841 182.239C88.962 181.816 88.962 181.49 88.1841 181.263C87.2786 181.985 86.5195 182.85 85.9074 183.865C85.7071 183.338 85.3819 182.908 84.9317 182.564C84.4849 183.715 83.943 184.801 83.3056 185.816C82.8717 185.38 82.4385 184.951 82.0047 184.515C80.3713 186.362 78.5286 187.989 76.4757 189.394C75.6678 189.595 75.0174 189.27 74.5243 188.418C73.7795 189.25 73.7795 190.116 74.5243 191.02C73.1005 191.456 71.7995 192.106 70.6216 192.971C70.1877 192.756 69.7545 192.535 69.3206 192.321C69.6563 193.14 69.2231 193.791 68.0197 194.272C67.6385 194.135 67.3133 193.921 67.044 193.622C66.5633 194.74 66.0208 195.827 65.4178 196.874C64.984 196.223 64.5508 195.573 64.1169 194.923C63.4665 195.788 62.816 196.659 62.1655 197.524C61.7844 197.388 61.4591 197.173 61.1898 196.874C59.2612 199.86 56.5507 201.7 53.0591 202.403C52.7429 204.452 51.55 205.649 49.4815 205.98C48.8239 205.727 48.4987 205.291 48.5058 204.679C47.9015 205.454 47.6849 206.319 47.8553 207.281C47.1711 207.184 46.5206 207.294 45.904 207.607C45.4116 208.589 44.7611 209.46 43.9526 210.208C43.3353 210.612 42.7934 210.501 42.3264 209.883C41.7722 210.579 41.2304 211.23 40.7003 211.835C40.8694 208.146 41.086 204.458 41.3507 200.777C43.7112 182.095 49.0229 164.318 57.2871 147.439C57.7684 146.256 58.5275 145.388 59.5637 144.837C59.0381 146.415 58.3876 147.933 57.6123 149.39C58.9874 151.901 58.6621 154.288 56.6366 156.545C56.4941 155.609 56.1689 154.743 55.6609 153.943C54.2566 156.415 53.1722 159.017 52.4086 161.749C53.2639 163.596 53.9144 165.548 54.36 167.603C54.9031 164.806 55.8788 162.204 57.2871 159.798C57.5596 160.559 57.9928 161.209 58.588 161.749C59.0218 159.147 59.4551 159.147 59.8889 161.749C62.0498 159.102 64.7602 157.365 68.0197 156.545C67.8447 155.29 68.17 154.204 68.9954 153.293C70.016 153.521 71.2083 153.625 72.5729 153.618C74.3006 151.751 76.1433 150.561 78.1019 150.041C79.6389 148.662 81.0485 147.146 82.3299 145.487C83.6861 146.233 84.6618 145.8 85.257 144.186C85.724 144.805 86.2658 144.913 86.8831 144.512C86.165 143.776 86.3816 143.233 87.5336 142.885C88.3376 143.371 89.2053 143.587 90.1354 143.536C90.06 141.318 91.1437 140.45 93.3878 140.934C93.4567 139.238 94.2151 137.937 95.6644 137.031C95.8647 137.557 96.1899 137.991 96.6401 138.332C97.5195 136.943 98.6032 136.726 99.8924 137.682C100.726 136.59 101.377 135.397 101.844 134.104C103.224 133.401 104.525 132.967 105.747 132.803C105.03 131.248 105.463 130.923 107.047 131.828C108.385 130.84 109.903 130.297 111.601 130.201C113.014 128.68 114.532 127.27 116.154 125.973C115.5 125.391 115.5 124.957 116.154 124.673C116.958 125.158 117.826 125.374 118.756 125.323C118.661 123.735 119.203 123.301 120.382 124.022C120.587 122.3 121.346 121.867 122.659 122.721C125.232 121.147 127.509 119.196 129.488 116.867C129.853 117.207 130.287 117.423 130.789 117.517C133.907 115.483 136.834 113.207 139.571 110.688C140.188 110.286 140.73 110.394 141.197 111.013C142.172 109.603 143.365 108.411 144.774 107.435C145.392 107.034 145.933 107.142 146.4 107.76C148.185 106.053 150.245 104.752 152.58 103.858C153.088 103.058 153.413 102.191 153.556 101.256C153.692 102.269 154.017 103.136 154.531 103.858Z" fill="#F2BD1F"/>
<path fill-rule="evenodd" clip-rule="evenodd" d="M676.853 129.226C687.475 129.226 698.104 129.226 708.726 129.226C708.511 140.83 708.726 152.324 709.376 163.7C715.881 163.7 722.385 163.7 728.89 163.7C728.89 171.941 728.89 180.176 728.89 188.418C722.385 188.418 715.881 188.418 709.376 188.418C709.077 201.251 709.402 214.046 710.352 226.795C711.985 230.802 714.912 232.207 719.133 231.023C720.941 230.444 722.678 229.683 724.337 228.746C727.277 237.124 730.093 245.58 732.793 254.114C722.294 260.242 711.022 262.083 698.969 259.643C690.337 257.126 684.158 251.812 680.431 243.707C678.863 239.713 677.777 235.596 677.178 231.348C676.853 217.038 676.742 202.728 676.853 188.418C672.3 188.418 667.747 188.418 663.193 188.418C663.193 180.176 663.193 171.941 663.193 163.7C667.747 163.7 672.3 163.7 676.853 163.7C676.853 152.206 676.853 140.717 676.853 129.226Z" fill="#010101"/>
<path fill-rule="evenodd" clip-rule="evenodd" d="M676.853 129.226C687.579 128.577 698.422 128.361 709.376 128.575C709.376 140.284 709.376 151.992 709.376 163.7C708.726 152.324 708.511 140.831 708.726 129.226C698.104 129.226 687.475 129.226 676.853 129.226Z" fill="#323232"/>
<path fill-rule="evenodd" clip-rule="evenodd" d="M235.839 127.925C241.552 130.148 247.406 131.124 253.402 130.852C254.111 132.194 254.22 133.604 253.727 135.08C251.726 135.592 249.667 135.918 247.547 136.056C247.114 137.14 246.68 138.224 246.247 139.308C248.644 139.833 250.921 139.508 253.076 138.332C253.402 138.549 253.727 138.766 254.052 138.983C250.344 146.834 246.984 154.86 243.97 163.05C241.851 157.079 239.032 151.439 235.514 146.138C235.37 143.068 235.045 140.032 234.538 137.031C239.266 134.8 239.266 133.716 234.538 133.779C234.35 131.642 234.783 129.691 235.839 127.925Z" fill="#EEB328"/>
<path fill-rule="evenodd" clip-rule="evenodd" d="M155.832 108.411C156.266 112.314 156.699 116.217 157.133 120.119C157.605 128.107 160.64 134.937 166.24 140.609C168.645 141.331 170.814 142.415 172.744 143.861C170.683 150.587 168.298 157.202 165.589 163.7C166.648 167.356 165.781 170.498 162.987 173.132C163.604 173.444 164.254 173.555 164.939 173.457C165.148 178.453 163.413 182.57 159.735 185.816C156.731 181.296 153.262 177.178 149.328 173.457C146.475 174.134 143.656 174.68 140.872 175.084C138.302 173.184 135.7 171.337 133.066 169.555C129.014 177.009 124.786 184.379 120.382 191.67C117.258 196.412 113.681 200.751 109.649 204.68C108.544 204.784 107.46 204.673 106.397 204.354C107.148 203.762 107.039 203.216 106.072 202.728C105.81 203.619 105.485 204.491 105.096 205.33C103.634 205.811 102.442 206.683 101.519 207.932C101.302 207.496 101.085 207.067 100.868 206.631C98.5882 207.776 98.263 209.187 99.8924 210.859C98.1576 211.074 96.4235 211.295 94.6887 211.51C94.2607 212.745 93.5016 213.721 92.4121 214.437C91.9782 214.001 91.545 213.571 91.1111 213.136C90.0893 214.71 88.6804 215.581 86.8831 215.738C86.8831 216.388 86.8831 217.038 86.8831 217.689C84.9447 217.52 83.7524 218.385 83.3056 220.291C83.1052 219.764 82.78 219.335 82.3299 218.99C81.788 219.64 81.2456 220.291 80.7037 220.941C79.8588 220.635 78.8831 220.635 77.7766 220.941C77.8872 221.8 77.6706 222.561 77.1262 223.218C75.8955 223.849 74.5946 224.285 73.2234 224.519C73.9656 225 73.9656 225.54 73.2234 226.145C71.9726 226.672 70.6716 226.997 69.3206 227.121C68.8477 228.031 68.5225 229.007 68.3449 230.048C67.9111 229.612 67.4779 229.183 67.044 228.747C65.1694 231.479 62.6761 232.454 59.5637 231.674C60.5485 232.611 60.7651 233.586 60.2141 234.601C59.6378 234.068 59.4212 233.417 59.5637 232.65C56.9267 232.461 56.6015 232.897 58.588 233.95C59.0218 234.386 59.0218 234.816 58.588 235.251C57.1914 235.648 55.7819 236.084 54.36 236.552C53.4734 237.456 52.9316 238.543 52.7338 239.805C50.5014 237.372 49.5257 237.808 49.8067 241.106C47.4423 238.27 46.4666 238.484 46.8797 241.756C45.9976 242.328 45.0219 242.543 43.9526 242.406C43.9526 243.057 43.9526 243.707 43.9526 244.358C44.8457 244.254 45.7134 244.364 46.5544 244.683C45.4701 245.119 44.3864 245.119 43.3021 244.683C42.396 242.823 41.5283 240.982 40.7003 239.154C40.7003 230.048 40.7003 220.941 40.7003 211.835C41.2304 211.23 41.7722 210.579 42.3264 209.883C42.7934 210.501 43.3353 210.612 43.9526 210.209C44.7611 209.461 45.4116 208.589 45.904 207.607C46.5206 207.295 47.1711 207.184 47.8553 207.281C47.6849 206.319 47.9015 205.454 48.5058 204.68C48.4987 205.291 48.8239 205.727 49.4815 205.981C51.55 205.649 52.7429 204.452 53.0591 202.403C56.5507 201.701 59.2612 199.86 61.1898 196.874C61.4591 197.173 61.7844 197.388 62.1655 197.525C62.816 196.659 63.4665 195.788 64.1169 194.923C64.5508 195.573 64.984 196.224 65.4178 196.874C66.0208 195.827 66.5633 194.741 67.044 193.622C67.3133 193.921 67.6385 194.136 68.0197 194.272C69.2231 193.791 69.6563 193.14 69.3206 192.321C69.7545 192.535 70.1877 192.757 70.6216 192.971C71.7995 192.106 73.1005 191.456 74.5243 191.02C73.7795 190.116 73.7795 189.251 74.5243 188.418C75.0174 189.27 75.6678 189.595 76.4757 189.394C78.5286 187.989 80.3713 186.363 82.0047 184.515C82.4385 184.951 82.8717 185.38 83.3056 185.816C83.943 184.801 84.4849 183.715 84.9317 182.564C85.3819 182.909 85.7071 183.338 85.9074 183.865C86.5195 182.85 87.2786 181.985 88.1841 181.263C88.962 181.491 88.962 181.816 88.1841 182.239C88.6179 182.674 89.0511 182.674 89.485 182.239C89.2833 181.022 89.6086 179.825 90.4607 178.661C90.6773 178.876 90.8945 179.097 91.1111 179.312C92.239 178.824 93.4313 178.499 94.6887 178.336C94.4721 178.121 94.2548 177.9 94.0382 177.685C94.9261 176.593 95.9018 176.482 96.9653 177.36C97.0967 176.215 97.4219 175.136 97.941 174.108C98.3749 174.544 98.8081 174.973 99.2419 175.409C100.307 173.692 101.608 172.176 103.145 170.856C103.526 170.992 103.851 171.207 104.12 171.506C105.03 171.031 106.006 170.706 107.047 170.53C107.592 169.873 107.809 169.112 107.698 168.254C108.558 168.143 109.317 168.358 109.975 168.904C110.948 167.278 112.357 166.192 114.203 165.652C114.568 163.525 115.652 162.874 117.455 163.7C122.756 160.142 128.068 157.105 133.391 154.594C136.224 151.979 139.26 149.598 142.498 147.439C142.698 147.966 143.023 148.395 143.473 148.74C143.981 147.94 144.307 147.075 144.449 146.138C145.105 145.824 145.864 145.716 146.726 145.813C147.623 144.561 148.599 143.368 149.653 142.235C150.303 142.669 150.954 143.102 151.604 143.536C152.459 141.852 152.893 140.117 152.905 138.332C152.471 137.899 152.038 137.465 151.604 137.032C150.878 137.974 150.444 139.058 150.303 140.284C149.415 139.573 149.198 138.706 149.653 137.682C150.533 136.911 151.292 136.043 151.929 135.08C152.311 135.216 152.636 135.433 152.905 135.731C154.021 134.293 155.43 133.209 157.133 132.478C157.939 131.498 157.722 130.739 156.483 130.202C157.722 129.664 157.939 128.905 157.133 127.925C156.699 128.359 156.266 128.792 155.832 129.226C154.681 125.86 153.922 126.077 153.556 129.876C153.616 127.063 153.616 124.244 153.556 121.42C152.333 122.351 151.357 122.133 150.628 120.77C151.218 118.87 151.435 116.919 151.279 114.916C151.929 114.916 152.58 114.916 153.23 114.916C153.027 116.703 153.243 118.437 153.881 120.119C154.317 116.165 154.968 112.262 155.832 108.411Z" fill="#F2BA21"/>
<path fill-rule="evenodd" clip-rule="evenodd" d="M371.786 163.05C375.881 172.534 378.7 182.505 380.242 192.971C379.407 195.931 378.756 198.968 378.291 202.078C377.765 201.876 377.331 201.551 376.99 201.102C377.719 198.884 377.828 196.607 377.315 194.272C375.728 194.773 374.861 195.859 374.713 197.524C374.496 197.31 374.279 197.088 374.063 196.874C372.993 198.279 371.583 199.15 369.835 199.476C368.235 200.686 366.717 201.986 365.281 203.378C363.88 204.309 362.471 204.523 361.053 204.029C358.88 206.364 356.387 208.315 353.573 209.883C352.772 210.631 352.772 211.392 353.573 212.16C352.738 212.602 351.979 212.498 351.296 211.834C350.976 212.517 351.084 213.168 351.622 213.786C350.849 213.818 349.982 214.04 349.02 214.436C349.454 214.651 349.887 214.872 350.321 215.087C349.995 215.301 349.67 215.523 349.345 215.737C347.816 215.529 346.298 215.314 344.792 215.087C344.562 215.848 344.67 216.609 345.117 217.363C344.853 217.981 344.42 218.411 343.816 218.664C344.033 218.879 344.25 219.1 344.466 219.315C342.527 219.64 340.575 219.744 338.612 219.64C335.332 217.116 332.622 214.085 330.481 210.534C327.388 205.701 325.111 200.497 323.652 194.922C323.703 193.992 323.486 193.127 323.001 192.321C324.821 190.974 324.605 189.998 322.351 189.394C323.001 189.068 323.652 188.743 324.302 188.418C324.868 190.955 326.06 190.955 327.88 188.418C328.347 189.036 328.889 189.146 329.506 188.743C328.639 188.307 328.639 187.878 329.506 187.442C329.072 187.227 328.639 187.006 328.205 186.792C328.964 184.73 329.94 184.626 331.132 186.466C331.719 185.686 332.478 185.146 333.409 184.84C332.462 184.567 332.136 184.021 332.433 183.214C333.258 183.292 334.125 183.507 335.035 183.865C335.749 182.908 336.725 182.369 337.962 182.238C337.404 181.79 336.971 181.25 336.661 180.612C338.182 180.014 339.158 178.934 339.588 177.36C340.238 178.225 340.889 179.097 341.539 179.962C343.781 178.804 345.624 177.178 347.068 175.083C347.751 174.765 348.401 174.869 349.02 175.409C349.672 174.082 350.54 173.86 351.622 174.758C352.082 170.699 354.467 167.987 358.777 166.627C358.56 166.413 358.343 166.191 358.126 165.977C359.536 165.437 360.511 164.461 361.053 163.05C361.27 163.486 361.487 163.915 361.704 164.351C362.465 163.447 363.441 162.9 364.631 162.725C364.414 162.51 364.197 162.289 363.98 162.074C365.029 161.606 366.005 161.716 366.907 162.399C367.309 161.781 367.201 161.241 366.582 160.773C367.607 160.487 368.475 159.947 369.184 159.147C369.716 160.194 370.15 161.274 370.485 162.399C370.782 162.92 371.216 163.134 371.786 163.05Z" fill="#F7AC25"/>
<path fill-rule="evenodd" clip-rule="evenodd" d="M607.253 161.098C622.93 159.368 637.025 163.16 649.534 172.482C661.6 184.066 666.803 198.272 665.145 215.087C642.379 215.087 619.612 215.087 596.846 215.087C596.768 224.362 601.107 230.542 609.855 233.625C618.728 235.947 626.963 234.646 634.573 229.722C636.258 227.706 638.209 226.08 640.427 224.844C648.317 228.246 655.908 232.149 663.193 236.552C655.739 248.436 645.117 255.916 631.321 258.993C607.598 264.75 587.98 258.356 572.454 239.804C557.155 214.749 560.299 192.308 581.885 172.482C589.431 166.536 597.887 162.744 607.253 161.098Z" fill="#010101"/>
<path fill-rule="evenodd" clip-rule="evenodd" d="M1085.99 161.099C1102.33 159.498 1116.86 163.726 1129.58 173.783C1140.77 185.25 1145.43 199.014 1143.56 215.087C1120.95 215.737 1098.29 215.952 1075.59 215.737C1075.84 225.65 1080.83 231.83 1090.55 234.276C1101.92 236.194 1111.35 232.838 1118.84 224.193C1126.61 228.129 1134.31 232.142 1141.93 236.227C1134.36 248.8 1123.3 256.391 1108.76 258.993C1080.28 265.082 1059.14 255.429 1045.34 230.048C1036.22 201.135 1045 179.565 1071.68 165.327C1076.41 163.499 1081.18 162.087 1085.99 161.099Z" fill="#259EBC"/>
<path fill-rule="evenodd" clip-rule="evenodd" d="M1182.26 161.098C1196.05 160.019 1209.16 162.406 1221.62 168.254C1218.71 175.591 1215.23 182.746 1211.21 189.719C1202.1 184.079 1192.46 182.668 1182.26 185.491C1180.95 187.559 1180.62 189.836 1181.29 192.321C1181.83 192.861 1182.37 193.407 1182.91 193.947C1191.38 197.199 1199.83 200.451 1208.28 203.704C1223.66 213.07 1227.89 226.19 1220.97 243.057C1218.25 248.371 1214.25 252.378 1208.93 255.09C1191.51 261.888 1173.94 262.317 1156.24 256.391C1151.12 254.589 1146.78 251.662 1143.23 247.61C1147.41 240.344 1151.74 233.189 1156.24 226.145C1163.27 231.934 1171.29 235.401 1180.31 236.552C1186.73 236.747 1189.66 233.71 1189.09 227.446C1188.49 226.112 1187.51 225.137 1186.17 224.519C1178.32 221.572 1170.74 218.105 1163.4 214.111C1149.45 204.595 1146.08 192.126 1153.32 176.71C1157.45 170.686 1162.98 166.458 1169.9 164.026C1174.03 162.725 1178.15 161.749 1182.26 161.098Z" fill="#249EBB"/>
<path fill-rule="evenodd" clip-rule="evenodd" d="M485.617 164.35C473.362 164.136 461.22 164.35 449.191 165.001C448.838 164.962 448.621 164.747 448.541 164.35C461.005 163.485 473.363 163.485 485.617 164.35Z" fill="#3F3F3F"/>
<path fill-rule="evenodd" clip-rule="evenodd" d="M534.402 164.35C546.655 163.485 559.014 163.485 571.478 164.35C571.397 164.747 571.181 164.962 570.828 165.001C558.799 164.35 546.657 164.136 534.402 164.35Z" fill="#3F3F3F"/>
<path fill-rule="evenodd" clip-rule="evenodd" d="M485.617 164.351C494.38 180.138 503.161 195.963 511.961 211.835C519.392 195.911 526.873 180.086 534.402 164.351C546.657 164.136 558.799 164.351 570.828 165.001C546.552 211.815 522.268 258.649 497.976 305.501C485.504 305.716 473.145 305.501 460.899 304.851C471.603 284.42 482.227 263.93 492.772 243.382C478.316 217.175 463.789 191.052 449.191 165.001C461.22 164.351 473.362 164.136 485.617 164.351Z" fill="#010101"/>
<path fill-rule="evenodd" clip-rule="evenodd" d="M734.744 164.351C745.366 164.351 755.995 164.351 766.617 164.351C766.617 195.358 766.617 226.359 766.617 257.367C755.995 257.367 745.366 257.367 734.744 257.367C734.744 226.359 734.744 195.358 734.744 164.351Z" fill="black"/>
<path fill-rule="evenodd" clip-rule="evenodd" d="M734.744 164.351C745.47 163.701 756.314 163.486 767.267 163.701C767.267 195.137 767.267 226.581 767.267 258.018C756.314 258.232 745.47 258.018 734.744 257.367C745.366 257.367 755.995 257.367 766.617 257.367C766.617 226.36 766.617 195.359 766.617 164.351C755.995 164.351 745.366 164.351 734.744 164.351Z" fill="#555555"/>
<path fill-rule="evenodd" clip-rule="evenodd" d="M925.33 258.017C925.33 226.581 925.33 195.137 925.33 163.7C914.487 163.7 903.65 163.7 892.807 163.7C892.807 194.922 892.807 226.145 892.807 257.367C892.156 226.041 891.942 194.597 892.156 163.05C903.429 163.05 914.708 163.05 925.98 163.05C926.195 194.818 925.98 226.47 925.33 258.017Z" fill="#DFFFFE"/>
<path fill-rule="evenodd" clip-rule="evenodd" d="M925.33 258.017C914.376 258.232 903.533 258.017 892.807 257.367C892.807 226.145 892.807 194.922 892.807 163.7C903.65 163.7 914.487 163.7 925.33 163.7C925.33 195.137 925.33 226.58 925.33 258.017Z" fill="#519EB1"/>
<path fill-rule="evenodd" clip-rule="evenodd" d="M893.457 164.351C903.865 164.351 914.272 164.351 924.679 164.351C924.679 195.358 924.679 226.359 924.679 257.367C914.272 257.367 903.865 257.367 893.457 257.367C893.457 226.359 893.457 195.358 893.457 164.351Z" fill="#209EBB"/>
<path fill-rule="evenodd" clip-rule="evenodd" d="M633.272 196.874C621.564 196.874 609.855 196.874 598.147 196.874C598.147 196.223 598.147 195.573 598.147 194.922C600.638 186.154 606.492 181.816 615.709 181.913C625.382 182.479 631.236 187.468 633.272 196.874Z" fill="#FBFBFB"/>
<path fill-rule="evenodd" clip-rule="evenodd" d="M1111.36 194.923C1111.36 195.573 1111.36 196.223 1111.36 196.874C1099.87 196.874 1088.38 196.874 1076.89 196.874C1076.89 196.009 1076.89 195.137 1076.89 194.272C1079.54 185.79 1085.4 181.887 1094.45 182.564C1103.34 182.238 1108.98 186.362 1111.36 194.923Z" fill="#FBFEFD"/>
<path fill-rule="evenodd" clip-rule="evenodd" d="M598.147 194.922C598.147 195.573 598.147 196.223 598.147 196.874C609.855 196.874 621.564 196.874 633.272 196.874C621.46 197.524 609.537 197.739 597.497 197.524C597.321 196.483 597.542 195.618 598.147 194.922Z" fill="#B8B8B8"/>
<path fill-rule="evenodd" clip-rule="evenodd" d="M971.513 100.606C960.891 100.606 950.262 100.606 939.64 100.606C939.64 152.857 939.64 205.115 939.64 257.367C950.047 257.367 960.455 257.367 970.862 257.367C970.648 245.112 970.862 232.968 971.513 220.941C971.513 233.3 971.513 245.659 971.513 258.018C960.669 258.018 949.833 258.018 938.99 258.018C938.99 205.33 938.99 152.643 938.99 99.9551C949.943 99.7405 960.787 99.9571 971.513 100.606Z" fill="#46A1B6"/>
<path fill-rule="evenodd" clip-rule="evenodd" d="M1076.89 194.272C1076.89 195.137 1076.89 196.009 1076.89 196.874C1088.38 196.874 1099.87 196.874 1111.36 196.874C1111.36 196.223 1111.36 195.573 1111.36 194.922C1111.97 195.618 1112.19 196.484 1112.01 197.524C1100.09 197.524 1088.16 197.524 1076.24 197.524C1076.06 196.282 1076.27 195.196 1076.89 194.272Z" fill="#B3ECF9"/>
<path fill-rule="evenodd" clip-rule="evenodd" d="M141.522 202.728C134.416 209.089 128.887 216.68 124.935 225.494C122.283 229.039 119.14 232.077 115.503 234.601C116.303 235.108 117.17 235.433 118.105 235.576C115.937 237.092 113.769 238.614 111.601 240.13C112.685 240.344 113.769 240.565 114.853 240.78C111.497 243.057 107.811 244.572 103.795 245.333C105.45 246.042 107.185 246.478 108.999 246.634C106.065 247.831 103.03 248.696 99.8924 249.236C100.925 249.795 102.009 250.231 103.145 250.537C100.396 251.565 97.5774 252.326 94.6887 252.814C95.3391 253.249 95.9896 253.679 96.64 254.115C93.6414 256.677 92.1232 259.93 92.0868 263.871C93.9107 272.23 96.1873 280.471 98.9167 288.589C101.697 292.882 105.492 296.024 110.3 298.021C113.452 298.144 116.487 298.795 119.406 299.972C120.755 301.891 122.597 302.867 124.935 302.899C127.297 303.14 128.381 302.054 128.187 299.647C130.76 302.119 133.253 302.119 135.668 299.647C137.434 300.681 138.953 300.46 140.221 298.996C142.796 298.457 145.398 298.131 148.027 298.021C148.992 297.591 149.859 297.045 150.628 296.395C149.246 299.484 147.945 302.633 146.726 305.826C146.942 306.152 147.16 306.477 147.376 306.802C150.098 301.676 152.7 296.473 155.182 291.191C156.483 290.976 157.784 290.755 159.084 290.54C158.217 289.675 157.35 288.804 156.483 287.939C162.151 276.172 167.788 264.463 173.395 252.814C175.353 257.269 177.737 261.497 180.55 265.498C187.414 266.968 194.353 267.943 201.365 268.425C199.896 271.098 198.812 273.915 198.112 276.881C196.794 276.777 195.493 276.881 194.209 277.206C195.225 277.817 196.093 278.578 196.811 279.483C194.751 284.472 192.692 289.454 190.632 294.443C190.124 295.38 190.233 296.252 190.957 297.045C193.51 291.718 195.895 286.299 198.112 280.783C202.498 280.699 202.932 279.613 199.413 277.531C205.191 263.553 211.154 249.678 217.301 235.902C221.705 243.837 225.391 252.079 228.359 260.619C228.336 265.27 227.578 269.823 226.082 274.279C227.272 274.786 228.248 274.357 229.009 272.978C228.254 276.12 226.845 279.047 224.781 281.759C225.923 281.85 227.007 281.525 228.034 280.783C228.25 281.109 228.467 281.434 228.684 281.759C227.157 287.184 226.507 292.713 226.733 298.346C243.762 298.392 260.783 298.827 277.794 299.647C281.588 299.536 285.383 299.432 289.177 299.322C289.898 298.905 290.657 298.58 291.454 298.346C293.358 298.944 295.2 299.595 296.983 300.297C298.861 300.213 300.487 299.562 301.861 298.346C301.76 294.983 301.542 291.731 301.211 288.589C299.692 287.451 298.5 286.039 297.633 284.361C294.948 284.146 292.346 283.607 289.828 282.735C281.231 282.67 273.859 279.528 267.712 273.303C269.229 273.089 270.747 272.867 272.265 272.653C268.717 270.623 265.79 267.911 263.484 264.522C258.917 247.272 256.098 229.709 255.028 211.834C254.496 208.029 254.604 204.341 255.353 200.777C255.353 202.943 255.353 205.115 255.353 207.281C257.088 207.281 258.822 207.281 260.557 207.281C261.218 214.079 262.302 220.798 263.809 227.446C275.321 232.987 286.812 238.516 298.284 244.032C302.118 251.22 305.696 258.479 309.016 265.823C319.485 273.271 330.218 280.101 341.214 286.312C326.35 271.879 316.051 254.641 310.317 234.601C309.528 232.474 309.311 230.308 309.667 228.096C312.855 222.372 316.216 216.732 319.749 211.184C321.649 219.393 325.335 226.658 330.807 232.974C336.17 233.092 341.482 233.417 346.743 233.95C354.769 249.23 364.201 263.54 375.038 276.881C358.845 324.41 328.057 358.989 282.672 380.63C234.806 401.204 186.889 400.983 138.92 379.979C97.3822 359.691 68.0028 328.144 50.7824 285.337C48.658 280.315 47.5743 275.111 47.5301 269.726C53.4929 263.761 59.455 257.803 65.4178 251.838C80.5743 248.234 94.8844 242.595 108.348 234.926C105.08 234.711 101.827 234.711 98.5914 234.926C115.394 223.328 128.511 208.478 137.944 190.369C137.645 192.958 137.429 195.56 137.294 198.175C138.423 200.035 139.832 201.557 141.522 202.728Z" fill="#F4F5F9"/>
<path fill-rule="evenodd" clip-rule="evenodd" d="M213.073 238.503C209.005 234.555 204.452 231.192 199.413 228.421C197.98 226.88 196.462 225.468 194.86 224.193C196.5 223.205 198.126 222.118 199.738 220.941C203.916 215.249 207.819 209.395 211.447 203.378C213.327 204.705 214.52 206.436 215.024 208.582C214.146 211.216 213.712 213.929 213.723 216.713C214.157 221.481 214.59 226.255 215.024 231.023C215.28 233.833 214.629 236.324 213.073 238.503Z" fill="#F1F2F6"/>
<path fill-rule="evenodd" clip-rule="evenodd" d="M813.45 203.378C813.45 221.591 813.45 239.804 813.45 258.017C802.607 258.017 791.77 258.017 780.927 258.017C780.927 257.803 780.927 257.581 780.927 257.367C791.549 257.367 802.178 257.367 812.8 257.367C812.585 239.258 812.8 221.26 813.45 203.378Z" fill="#73B6C8"/>
<path fill-rule="evenodd" clip-rule="evenodd" d="M849.226 204.029C849.876 221.695 850.091 239.473 849.876 257.367C860.498 257.367 871.127 257.367 881.749 257.367C871.023 258.017 860.18 258.232 849.226 258.017C849.226 240.019 849.226 222.027 849.226 204.029Z" fill="#5EAFC2"/>
<path fill-rule="evenodd" clip-rule="evenodd" d="M109.649 204.679C103.108 212.504 95.5186 219.113 86.8831 224.519C82.6804 229.143 78.5611 233.807 74.5243 238.503C69.7135 240.377 64.727 241.574 59.5636 242.081C52.8632 250.257 45.7081 258.063 38.0984 265.498C25.4586 275.313 12.9918 285.395 0.696735 295.744C0.376707 295.061 0.484684 294.411 1.02197 293.793C13.8484 278.8 26.4245 263.624 38.7488 248.26C39.3967 248.319 39.9385 248.098 40.375 247.61C40.6996 244.8 40.8082 241.983 40.7002 239.154C41.5282 240.982 42.396 242.823 43.3021 244.683C44.3864 245.119 45.47 245.119 46.5544 244.683C45.7133 244.364 44.8456 244.254 43.9525 244.358C43.9525 243.707 43.9525 243.057 43.9525 242.406C45.0219 242.543 45.9976 242.328 46.8796 241.756C46.4666 238.484 47.4423 238.269 49.8067 241.105C49.5257 237.807 50.5014 237.372 52.7338 239.804C52.9315 238.543 53.4733 237.456 54.3599 236.552C55.7818 236.084 57.1914 235.648 58.5879 235.251C59.0218 234.815 59.0218 234.386 58.5879 233.95C56.6014 232.896 56.9267 232.461 59.5636 232.649C59.4212 233.417 59.6378 234.067 60.2141 234.601C60.765 233.586 60.5484 232.61 59.5636 231.674C62.6761 232.454 65.1693 231.478 67.044 228.747C67.4778 229.182 67.911 229.612 68.3449 230.047C68.5225 229.007 68.8477 228.031 69.3206 227.12C70.6716 226.997 71.9725 226.672 73.2234 226.145C73.9655 225.54 73.9655 225 73.2234 224.519C74.5945 224.284 75.8955 223.849 77.1261 223.218C77.6706 222.561 77.8872 221.8 77.7766 220.941C78.883 220.635 79.8587 220.635 80.7037 220.941C81.2455 220.291 81.788 219.64 82.3298 218.99C82.78 219.334 83.1052 219.764 83.3055 220.291C83.7524 218.385 84.9447 217.52 86.8831 217.689C86.8831 217.038 86.8831 216.388 86.8831 215.737C88.6803 215.581 90.0892 214.71 91.1111 213.135C91.5449 213.571 91.9781 214.001 92.412 214.436C93.5015 213.721 94.2606 212.745 94.6886 211.509C96.4234 211.295 98.1575 211.073 99.8923 210.859C98.2629 209.187 98.5882 207.776 100.868 206.631C101.085 207.067 101.302 207.496 101.518 207.932C102.442 206.683 103.634 205.811 105.096 205.33C105.485 204.491 105.81 203.619 106.072 202.728C107.039 203.216 107.148 203.762 106.397 204.354C107.46 204.673 108.544 204.783 109.649 204.679Z" fill="#F3B828"/>
<path fill-rule="evenodd" clip-rule="evenodd" d="M380.242 192.971C381.682 198.207 382.332 203.626 382.193 209.233C383.032 219.861 383.032 230.483 382.193 241.105C382.193 243.707 382.193 246.309 382.193 248.911C381.3 248.807 380.432 248.918 379.591 249.236C378.603 250.036 378.061 250.797 377.965 251.513C376.802 250.921 375.609 250.81 374.388 251.188C374.604 251.402 374.822 251.623 375.038 251.838C372.913 252.424 372.479 253.614 373.737 255.416C365.113 245.223 357.524 234.276 350.971 222.567C346.701 221.865 342.581 220.889 338.612 219.64C340.575 219.744 342.527 219.64 344.466 219.315C344.25 219.1 344.033 218.879 343.816 218.664C344.42 218.411 344.853 217.981 345.117 217.364C344.67 216.609 344.562 215.848 344.792 215.087C346.298 215.315 347.816 215.529 349.345 215.737C349.67 215.523 349.995 215.302 350.321 215.087C349.887 214.872 349.454 214.651 349.02 214.436C349.982 214.04 350.849 213.819 351.622 213.786C351.084 213.168 350.976 212.518 351.296 211.835C351.979 212.498 352.738 212.602 353.573 212.16C352.772 211.392 352.772 210.631 353.573 209.883C356.387 208.316 358.88 206.364 361.053 204.029C362.471 204.523 363.88 204.309 365.281 203.379C366.717 201.987 368.235 200.686 369.834 199.476C371.583 199.151 372.992 198.279 374.063 196.874C374.279 197.089 374.496 197.31 374.713 197.524C374.861 195.859 375.728 194.773 377.315 194.272C377.828 196.607 377.719 198.884 376.99 201.102C377.331 201.551 377.765 201.876 378.291 202.078C378.756 198.968 379.407 195.931 380.242 192.971Z" fill="#F7AC25"/>
<path fill-rule="evenodd" clip-rule="evenodd" d="M382.193 209.232C383.163 214.729 383.597 220.368 383.494 226.144C383.636 231.283 383.202 236.272 382.193 241.105C383.032 230.483 383.032 219.861 382.193 209.232Z" fill="#F7CB87"/>
<path fill-rule="evenodd" clip-rule="evenodd" d="M41.3507 200.776C41.086 204.458 40.8693 208.146 40.7002 211.834C40.7002 220.941 40.7002 230.047 40.7002 239.154C40.8082 241.983 40.6996 244.8 40.375 247.61C39.9385 248.098 39.3967 248.319 38.7488 248.26C38.9329 247.746 39.2582 247.31 39.7245 246.959C39.8332 244.143 39.9411 241.32 40.0498 238.503C39.5164 230.268 39.4078 222.027 39.7245 213.786C39.8078 209.297 40.3496 204.959 41.3507 200.776Z" fill="#F1CB64"/>
<path fill-rule="evenodd" clip-rule="evenodd" d="M1246.01 218.989C1258.99 217.292 1267.77 222.495 1272.35 234.601C1273.47 252.345 1265.12 260.912 1247.31 260.294C1234.83 256.268 1229.51 247.701 1231.37 234.601C1233.75 226.997 1238.63 221.793 1246.01 218.989Z" fill="#249EBB"/>
<path fill-rule="evenodd" clip-rule="evenodd" d="M194.86 224.193C196.462 225.468 197.98 226.88 199.413 228.421C204.452 231.192 209.005 234.555 213.073 238.504C209.17 248.475 205.267 258.453 201.365 268.425C194.353 267.943 187.414 266.968 180.55 265.498C177.737 261.497 175.353 257.269 173.395 252.814C175.784 247.168 178.169 241.535 180.55 235.902C181.969 233.397 183.487 230.9 185.103 228.421C188.205 226.652 191.457 225.247 194.86 224.193Z" fill="#FDFDFD"/>
<path fill-rule="evenodd" clip-rule="evenodd" d="M179.249 234.601C170.913 251.715 162.89 269.056 155.182 286.638C150.796 286.722 150.362 287.809 153.881 289.89C153.16 291.555 152.293 293.071 151.279 294.443C151.383 293.338 151.275 292.251 150.954 291.191C149.243 288.83 147.292 286.657 145.1 284.687C144.087 279.971 143.87 275.196 144.449 270.376C146.893 268.366 148.844 265.986 150.303 263.221C150.849 261.504 150.524 259.988 149.328 258.668C151.785 255.234 154.603 252.092 157.784 249.236C165.234 243.74 172.498 237.99 179.574 231.999C179.701 232.858 179.592 233.723 179.249 234.601Z" fill="#F2F3F6"/>
<path fill-rule="evenodd" clip-rule="evenodd" d="M382.193 248.911C396.152 262.629 409.595 276.829 422.522 291.516C421.872 291.952 421.221 291.952 420.571 291.516C409.212 283.776 397.721 276.185 386.096 268.75C381.585 264.568 377.466 260.125 373.737 255.416C372.479 253.614 372.913 252.423 375.038 251.838C374.822 251.623 374.604 251.402 374.388 251.188C375.609 250.81 376.802 250.921 377.965 251.513C378.061 250.797 378.603 250.036 379.591 249.236C380.432 248.917 381.3 248.807 382.193 248.911Z" fill="#F5B123"/>
<path fill-rule="evenodd" clip-rule="evenodd" d="M179.249 234.601C179.465 235.251 179.899 235.687 180.55 235.902C178.169 241.535 175.784 247.168 173.395 252.814C167.788 264.463 162.151 276.172 156.483 287.939C157.35 288.804 158.217 289.675 159.085 290.54C157.784 290.755 156.483 290.976 155.182 291.191C152.7 296.473 150.098 301.676 147.376 306.802C147.16 306.477 146.942 306.152 146.726 305.826C147.945 302.632 149.246 299.484 150.628 296.395C150.474 295.555 150.691 294.905 151.279 294.443C152.293 293.071 153.16 291.555 153.881 289.89C150.362 287.808 150.796 286.722 155.182 286.638C162.89 269.056 170.913 251.714 179.249 234.601Z" fill="#151718"/>
<path fill-rule="evenodd" clip-rule="evenodd" d="M460.899 304.851C473.145 305.501 485.504 305.716 497.976 305.501C485.506 306.366 472.93 306.366 460.249 305.501C460.329 305.104 460.546 304.89 460.899 304.851Z" fill="#BFBFBF"/>
</svg>
