<svg class="brxe-svg header__logo" xmlns="http://www.w3.org/2000/svg" xmlns:xlink="http://www.w3.org/1999/xlink" data-name="Layer 2" viewBox="0 0 80.64 81.53"><defs><style> .cls-1 { fill: url(#_未命名的渐变_20); } .cls-1, .cls-2, .cls-3, .cls-4, .cls-5, .cls-6, .cls-7 { stroke-width: 0px; } .cls-2 { fill: url(#_未命名的渐变_20-7); } .cls-3 { fill: url(#_未命名的渐变_20-4); } .cls-4 { fill: url(#_未命名的渐变_20-3); } .cls-5 { fill: url(#_未命名的渐变_20-6); } .cls-6 { fill: url(#_未命名的渐变_20-5); } .cls-7 { fill: url(#_未命名的渐变_20-2); } </style><linearGradient id="_未命名的渐变_20" data-name="未命名的渐变 20" x1="51.61" y1="17.12" x2="60.78" y2="26.92" gradientUnits="userSpaceOnUse"><stop offset="0" stop-color="#cdab5d"></stop><stop offset=".17" stop-color="#bfa06d"></stop><stop offset=".28" stop-color="#c3a36d"></stop><stop offset=".38" stop-color="#cfac70"></stop><stop offset=".69" stop-color="#a78635"></stop><stop offset="1" stop-color="#bfa06d"></stop></linearGradient><linearGradient id="_未命名的渐变_20-2" data-name="未命名的渐变 20" x1="-4.67" y1="31.89" x2="3.13" y2="40.23" xlink:href="#_未命名的渐变_20"></linearGradient><linearGradient id="_未命名的渐变_20-3" data-name="未命名的渐变 20" x1="69.49" y1="32.74" x2="77.29" y2="41.08" xlink:href="#_未命名的渐变_20"></linearGradient><linearGradient id="_未命名的渐变_20-4" data-name="未命名的渐变 20" x1="10.15" y1="16.81" x2="19.61" y2="26.92" xlink:href="#_未命名的渐变_20"></linearGradient><linearGradient id="_未命名的渐变_20-5" data-name="未命名的渐变 20" x1="30.67" y1="3.03" x2="40.19" y2="13.2" xlink:href="#_未命名的渐变_20"></linearGradient><linearGradient id="_未命名的渐变_20-6" data-name="未命名的渐变 20" x1="31.08" y1="30.89" x2="40.2" y2="40.63" xlink:href="#_未命名的渐变_20"></linearGradient><linearGradient id="_未命名的渐变_20-7" data-name="未命名的渐变 20" x1="21.03" y1="34.15" x2="40.07" y2="54.49" xlink:href="#_未命名的渐变_20"></linearGradient></defs><g id="_图层_1" data-name="图层 1"><g><polygon class="cls-1" points="60.48 14.47 60.91 14.18 61.33 13.91 61.33 13.91 80.63 26.77 80.21 27.05 79.78 27.33 60.48 40.19 41.17 27.33 60.48 14.47"></polygon><polygon class="cls-7" points="0 27.91 0 53.63 19.3 40.77 0 27.91"></polygon><polygon class="cls-4" points="80.63 53.62 80.63 27.91 61.33 40.76 80.63 53.62"></polygon><polygon class="cls-3" points=".85 27.33 19.69 39.88 20.16 40.2 20.63 39.88 39.47 27.33 20.63 14.78 20.16 14.47 20.16 14.47 19.74 14.18 19.73 14.18 19.31 13.9 19.3 13.9 0 26.77 .43 27.05 .85 27.33"></polygon><path class="cls-6" d="m39.89,1.32c-.02.06-.03.11-.03.17v24.95l.46.31.48-.32V1.5c0-.06,0-.11-.03-.16l18.85,12.56.85-.57L40.58.08s-.03-.02-.05-.02c-.03-.02-.07-.03-.1-.04-.04,0-.08-.01-.11-.01-.02,0-.04,0-.06,0h0s-.01,0-.02,0c-.03,0-.07.02-.1.04-.01,0-.02,0-.03.01h0s-.01,0-.02,0c0,0,0,0,0,0,0,0,0,0,0,0l-19.9,13.25.85.57L39.89,1.32Z"></path><polygon class="cls-5" points="40.32 27.9 39.86 28.21 21.01 40.77 39.86 53.32 40.31 53.63 40.8 53.3 59.63 40.76 40.8 28.22 40.32 27.9"></polygon><path class="cls-2" d="m79.79,54.19l-18.84,12.55v-25.1l-.47-.31h0l-.47.32v25.72l-19.2,12.79v-25.08l-.49-.32-.46.3v25.11l-19.22-12.81v-25.72l-.47-.32-.47.31v25.1L.85,54.19l-.85.57,40.06,26.68c.08.06.17.08.26.08.07,0,.14-.01.2-.05.01,0,.03-.01.05-.02.01,0,.02,0,.03-.02l.04-.03h0s40-26.65,40-26.65l-.85-.57Z"></path></g></g></svg>