<svg id="Layer_1" data-name="Layer 1" xmlns="http://www.w3.org/2000/svg" viewBox="0 0 697.91 241.65"><defs><style>.cls-1{fill:#000;}</style></defs><title>SIR_logo_White</title><polygon class="cls-1" points="626.13 36.45 609.53 76.63 613.43 76.63 644.97 36.45 626.13 36.45"/><path class="cls-1" d="M302.17,379.61a59.69,59.69,0,0,1-26.91-6.2l-6.9,6.2h-3.19l-2.12-39.3,3.71-.35c11.16,25.49,24.26,33.63,36.47,33.63,12.75,0,20.19-8.31,20.19-19.47,0-10.62-4.08-15.76-20.71-22.66-5.67-2.3-12.22-4.6-17.71-7.26-12.39-6.19-18.94-15.93-18.94-28.85,0-21.07,18.23-33.82,36.11-33.82,8.85,0,14.87,2.48,20.72,5.85l6.9-6h3l3,34.69-3.54.54c-9.74-19.48-20.18-29-31.69-29-10.09,0-16.82,6.73-16.82,17.17,0,8.32,3.54,14.7,16.11,20.19,6.2,2.83,13.46,5.31,20,8.49,14.33,6.91,21.07,15.94,21.07,29,0,23.36-19.66,37.17-38.78,37.17" transform="translate(-263.05 -245.78)"/><path class="cls-1" d="M395.83,299.24c-12.4,0-20,13.81-20,38.06,0,23.9,8.15,37.52,20.71,37.52,12.93,0,20-13.79,20-38.05,0-23.89-7.61-37.53-20.71-37.53m-.72,80.55c-26.9,0-40.18-19.3-40.18-42.84,0-21.78,15.22-42.66,42.49-42.66,26.91,0,39.83,19.11,39.83,42.48,0,22-14.87,43-42.14,43" transform="translate(-263.05 -245.78)"/><path class="cls-1" d="M475.67,379.08c-14,0-18.41-6.9-18.41-19.65V306.5h-13.1V304l16.28-12.92,12.93-16.82H476v23h26.92v9.21H476v45.85c0,7.08,1.06,11.33,4.61,13.81,3,2.13,7.08,2.83,12.92,2.83,2.83,0,6.38-.18,9.74-.35l.17,2.48c-6.9,4.24-18.23,8-27.79,8" transform="translate(-263.05 -245.78)"/><path class="cls-1" d="M558.35,307.74a38.66,38.66,0,0,0-18.42,4.43v58.59l9.92,3.71V377h-40v-2.49L521,370.76V263.83l-12.21-8V254.1l30.45-8.32.7.53v62l.71.35c10.45-9.91,20-14.33,29.57-14.33,15.93,0,22.66,12,22.66,24.6v51.87L604,374.47V377H564v-2.49l9.92-3.71V326.15c0-11.51-4.61-18.41-15.58-18.41" transform="translate(-263.05 -245.78)"/><path class="cls-1" d="M665.46,324.91c-.7-16.64-5.48-25.67-15.93-25.67-10.27,0-18.24,10.8-19.12,27.26l35.05-1.59Zm-35.23,6c0,22.48,6.38,37.18,26.38,37.18,8.85,0,16.11-1.77,26.74-5.67l1.06,2.13c-10.8,9.37-22.84,15.22-34.17,15.22-24.25,0-40.19-16.64-40.19-41.25,0-25.31,19.12-44.25,40.72-44.25,23.37,0,34.7,15.75,34.52,36.64Z" transform="translate(-263.05 -245.78)"/><path class="cls-1" d="M735.39,306.68a35.18,35.18,0,0,0-14,2.83v56.12a26.68,26.68,0,0,0,19.3,8.13c10.44,0,19.11-9.37,19.11-34.33,0-21.95-9.38-32.75-24.43-32.75m-3,73.11c-9.2,0-21.42-2.13-29.91-4.61V263.84l-12.39-8V254.1l30.62-8.32.71.53v59.3l.71.36c6.19-6.2,14.69-11.68,25.66-11.68,16.83,0,32.05,15.4,32.05,40.71s-19.12,44.79-47.45,44.79" transform="translate(-263.05 -245.78)"/><path class="cls-1" d="M828.34,382.44c-8.85,21.78-17.17,31.34-28.15,31.34-9.38,0-13.81-5.49-13.81-11.16,0-5.49,5-10.08,10.63-10.08,6,0,9.56,3.18,13.8,8.49a68.41,68.41,0,0,0,9.74-15l3-6.73-31.33-75.59-10.81-4.24v-2.3h43.2v2.3l-11.33,4.24,19.12,51.88h.88l17.35-50.63-10.26-5.49v-2.3h30.44v2.3l-11.5,5.84-31,77.18Z" transform="translate(-263.05 -245.78)"/><path class="cls-1" d="M929.27,379.79A69.7,69.7,0,0,1,903.06,375l-.17-23.36,3.54-.35c9.56,16.82,16.82,23.18,26.2,23.18,8.32,0,13.46-5.3,13.46-13.44,0-9.21-9.38-12.75-19.48-16.82-11.15-4.78-23-10.09-23-24.79,0-14,12.39-25.13,30.45-25.13,6.9,0,16.64,1.41,21.42,3.18l.53,21.07-3.36.88c-8.68-14.33-14.34-19.83-22.49-19.83-7.43,0-12,5-12,11.33,0,9.21,9.56,12.93,19.65,17,11.16,4.61,23.2,9.91,23.2,25,0,16.47-14.52,26.91-31.69,26.91" transform="translate(-263.05 -245.78)"/><path class="cls-1" d="M265.31,486.65h3.95v-41.2h-3.95v41.2Zm18.2,0h3.73v-35h.11l23.44,35h3.51v-41.2h-3.73v34h-.11l-22.72-34h-4.23v41.2Zm53,0h3.95V449.12h13.31v-3.67H323.2v3.67h13.31v37.53Zm26.17,0h25.77V483H366.63V466.66h15.42V463.1H366.63v-14h20.65v-3.67h-24.6v41.2Zm36.46,0H403V468.16h10.24l10.08,18.49h4.45L417.4,467.72c6-1.11,9.85-4.46,9.85-11.13,0-7.24-5.12-11.14-14.3-11.14H399.14v41.2Zm3.9-22V449.07h9.57c6.91,0,10.69,2,10.69,7.68,0,6-3.84,7.91-10.63,7.91Zm37.91,22h3.73v-35h.11l23.44,35h3.51v-41.2H468v34h-.12l-22.71-34H441v41.2Zm41.42,0h3.84l4.4-12.7h16.7l4.4,12.7h4.12l-14.59-41.37H497l-14.59,41.37Zm9.46-16.2L498.9,450H499l7.08,20.49Zm39.86,16.2h4V449.12H549v-3.67H518.39v3.67h13.3v37.53Zm26.72,0h4v-41.2h-4v41.2Zm33.19.78c10.07,0,17.36-8.47,17.36-21.38s-7.29-21.38-17.36-21.38-17.38,8.47-17.38,21.38,7.3,21.38,17.38,21.38Zm0-3.57c-7.8,0-13.42-6.62-13.42-17.81s5.62-17.76,13.42-17.76S605,454.86,605,466.05s-5.62,17.81-13.41,17.81Zm30,2.79h3.73v-35h.12l23.43,35h3.51v-41.2h-3.73v34h-.11l-22.72-34H621.6v41.2Zm41.48,0h3.84l4.4-12.7H688l4.39,12.7h4.13L682,445.28h-4.29l-14.58,41.37Zm9.46-16.2L679.61,450h.11l7.07,20.49Zm35,16.2h24.11V483H711.46V445.45h-4v41.2Zm47.71,0h3.9V468.16h10.24l10.08,18.49h4.45l-10.41-18.93c6-1.11,9.85-4.46,9.85-11.13,0-7.24-5.12-11.14-14.3-11.14H755.21v41.2Zm3.9-22V449.07h9.57c6.91,0,10.69,2,10.69,7.68,0,6-3.84,7.91-10.63,7.91Zm36.79,22h25.78V483H799.86V466.66h15.42V463.1H799.86v-14h20.65v-3.67H795.9v41.2Zm30.85,0h3.84L835,474h16.7l4.4,12.7h4.12l-14.59-41.37h-4.29l-14.58,41.37Zm9.46-16.2L843.28,450h.11l7.07,20.49Zm34,16.2h24.11V483H874.12V445.45h-4v41.2Zm35.13,0h4V449.12h13.31v-3.67H892v3.67h13.3v37.53Zm35.57,0h4V468.5l13.86-23.05h-4.23l-11.53,19.66-11.58-19.66h-4.28l13.8,23.05v18.15Z" transform="translate(-263.05 -245.78)"/></svg>